<svg width="141" height="68" viewBox="0 0 141 68" fill="none" xmlns="http://www.w3.org/2000/svg">
<path d="M3.89031 39V11H17.5703C21.0903 11 23.7303 11.6667 25.4903 13C27.277 14.3333 28.1703 16.0933 28.1703 18.28C28.1703 19.7467 27.8103 21.0267 27.0903 22.12C26.3703 23.1867 25.3836 24.0133 24.1303 24.6C22.877 25.1867 21.437 25.48 19.8103 25.48L20.5703 23.84C22.3303 23.84 23.8903 24.1333 25.2503 24.72C26.6103 25.28 27.6636 26.12 28.4103 27.24C29.1836 28.36 29.5703 29.7333 29.5703 31.36C29.5703 33.76 28.6236 35.64 26.7303 37C24.837 38.3333 22.0503 39 18.3703 39H3.89031ZM10.3303 34.12H17.8903C19.5703 34.12 20.837 33.8533 21.6903 33.32C22.5703 32.76 23.0103 31.88 23.0103 30.68C23.0103 29.5067 22.5703 28.64 21.6903 28.08C20.837 27.4933 19.5703 27.2 17.8903 27.2H9.85031V22.48H16.7703C18.3436 22.48 19.5436 22.2133 20.3703 21.68C21.2236 21.12 21.6503 20.28 21.6503 19.16C21.6503 18.0667 21.2236 17.2533 20.3703 16.72C19.5436 16.16 18.3436 15.88 16.7703 15.88H10.3303V34.12ZM44.2763 39.32C41.9829 39.32 39.9429 38.84 38.1563 37.88C36.3963 36.92 34.9963 35.6133 33.9563 33.96C32.9429 32.28 32.4363 30.3733 32.4363 28.24C32.4363 26.08 32.9429 24.1733 33.9563 22.52C34.9963 20.84 36.3963 19.5333 38.1563 18.6C39.9429 17.64 41.9829 17.16 44.2763 17.16C46.5429 17.16 48.5696 17.64 50.3563 18.6C52.1429 19.5333 53.5429 20.8267 54.5563 22.48C55.5696 24.1333 56.0763 26.0533 56.0763 28.24C56.0763 30.3733 55.5696 32.28 54.5563 33.96C53.5429 35.6133 52.1429 36.92 50.3563 37.88C48.5696 38.84 46.5429 39.32 44.2763 39.32ZM44.2763 34.2C45.3163 34.2 46.2496 33.96 47.0763 33.48C47.9029 33 48.5563 32.32 49.0363 31.44C49.5163 30.5333 49.7563 29.4667 49.7563 28.24C49.7563 26.9867 49.5163 25.92 49.0363 25.04C48.5563 24.16 47.9029 23.48 47.0763 23C46.2496 22.52 45.3163 22.28 44.2763 22.28C43.2363 22.28 42.3029 22.52 41.4763 23C40.6496 23.48 39.9829 24.16 39.4763 25.04C38.9963 25.92 38.7563 26.9867 38.7563 28.24C38.7563 29.4667 38.9963 30.5333 39.4763 31.44C39.9829 32.32 40.6496 33 41.4763 33.48C42.3029 33.96 43.2363 34.2 44.2763 34.2ZM70.4872 39.32C68.1939 39.32 66.1539 38.84 64.3672 37.88C62.6072 36.92 61.2072 35.6133 60.1672 33.96C59.1539 32.28 58.6472 30.3733 58.6472 28.24C58.6472 26.08 59.1539 24.1733 60.1672 22.52C61.2072 20.84 62.6072 19.5333 64.3672 18.6C66.1539 17.64 68.1939 17.16 70.4872 17.16C72.7539 17.16 74.7805 17.64 76.5672 18.6C78.3539 19.5333 79.7539 20.8267 80.7672 22.48C81.7805 24.1333 82.2872 26.0533 82.2872 28.24C82.2872 30.3733 81.7805 32.28 80.7672 33.96C79.7539 35.6133 78.3539 36.92 76.5672 37.88C74.7805 38.84 72.7539 39.32 70.4872 39.32ZM70.4872 34.2C71.5272 34.2 72.4605 33.96 73.2872 33.48C74.1139 33 74.7672 32.32 75.2472 31.44C75.7272 30.5333 75.9672 29.4667 75.9672 28.24C75.9672 26.9867 75.7272 25.92 75.2472 25.04C74.7672 24.16 74.1139 23.48 73.2872 23C72.4605 22.52 71.5272 22.28 70.4872 22.28C69.4472 22.28 68.5139 22.52 67.6872 23C66.8605 23.48 66.1939 24.16 65.6872 25.04C65.2072 25.92 64.9672 26.9867 64.9672 28.24C64.9672 29.4667 65.2072 30.5333 65.6872 31.44C66.1939 32.32 66.8605 33 67.6872 33.48C68.5139 33.96 69.4472 34.2 70.4872 34.2ZM91.6181 34.6L91.7781 27L101.818 17.48H109.258L99.6181 27.28L96.3781 29.92L91.6181 34.6ZM86.4581 39V9.32H92.6981V39H86.4581ZM102.498 39L95.2181 29.96L99.1381 25.12L110.058 39H102.498ZM111.784 22.6L114.424 13L115.304 16.64C114.158 16.64 113.211 16.3067 112.464 15.64C111.744 14.9467 111.384 14.0133 111.384 12.84C111.384 11.6933 111.758 10.7733 112.504 10.08C113.251 9.36 114.171 9 115.264 9C116.384 9 117.304 9.36 118.024 10.08C118.744 10.7733 119.104 11.6933 119.104 12.84C119.104 13.1867 119.078 13.5333 119.024 13.88C118.998 14.2 118.904 14.5867 118.744 15.04C118.611 15.4933 118.384 16.0933 118.064 16.84L115.744 22.6H111.784ZM129.87 39.32C128.03 39.32 126.257 39.1067 124.55 38.68C122.87 38.2267 121.537 37.6667 120.55 37L122.63 32.52C123.617 33.1333 124.777 33.64 126.11 34.04C127.47 34.4133 128.803 34.6 130.11 34.6C131.55 34.6 132.563 34.4267 133.15 34.08C133.763 33.7333 134.07 33.2533 134.07 32.64C134.07 32.1333 133.83 31.76 133.35 31.52C132.897 31.2533 132.283 31.0533 131.51 30.92C130.737 30.7867 129.883 30.6533 128.95 30.52C128.043 30.3867 127.123 30.2133 126.19 30C125.257 29.76 124.403 29.4133 123.63 28.96C122.857 28.5067 122.23 27.8933 121.75 27.12C121.297 26.3467 121.07 25.3467 121.07 24.12C121.07 22.76 121.457 21.56 122.23 20.52C123.03 19.48 124.177 18.6667 125.67 18.08C127.163 17.4667 128.95 17.16 131.03 17.16C132.497 17.16 133.99 17.32 135.51 17.64C137.03 17.96 138.297 18.4267 139.31 19.04L137.23 23.48C136.19 22.8667 135.137 22.4533 134.07 22.24C133.03 22 132.017 21.88 131.03 21.88C129.643 21.88 128.63 22.0667 127.99 22.44C127.35 22.8133 127.03 23.2933 127.03 23.88C127.03 24.4133 127.257 24.8133 127.71 25.08C128.19 25.3467 128.817 25.56 129.59 25.72C130.363 25.88 131.203 26.0267 132.11 26.16C133.043 26.2667 133.977 26.44 134.91 26.68C135.843 26.92 136.683 27.2667 137.43 27.72C138.203 28.1467 138.83 28.7467 139.31 29.52C139.79 30.2667 140.03 31.2533 140.03 32.48C140.03 33.8133 139.63 35 138.83 36.04C138.03 37.0533 136.87 37.8533 135.35 38.44C133.857 39.0267 132.03 39.32 129.87 39.32Z" fill="#303030"/>
<path d="M79.8903 63V52C79.8903 50.7867 80.2503 49.82 80.9703 49.1C81.6903 48.3667 82.717 48 84.0503 48C84.5036 48 84.937 48.0467 85.3503 48.14C85.777 48.2333 86.137 48.38 86.4303 48.58L85.6103 50.84C85.437 50.72 85.2436 50.6267 85.0303 50.56C84.817 50.4933 84.5903 50.46 84.3503 50.46C83.897 50.46 83.5436 50.5933 83.2903 50.86C83.0503 51.1133 82.9303 51.5 82.9303 52.02V53.02L83.0103 54.36V63H79.8903ZM78.2303 54.88V52.48H85.6903V54.88H78.2303ZM87.4503 63V52.24H90.5703V63H87.4503ZM89.0103 50.74C88.437 50.74 87.9703 50.5733 87.6103 50.24C87.2503 49.9067 87.0703 49.4933 87.0703 49C87.0703 48.5067 87.2503 48.0933 87.6103 47.76C87.9703 47.4267 88.437 47.26 89.0103 47.26C89.5836 47.26 90.0503 47.42 90.4103 47.74C90.7703 48.0467 90.9503 48.4467 90.9503 48.94C90.9503 49.46 90.7703 49.8933 90.4103 50.24C90.0636 50.5733 89.597 50.74 89.0103 50.74ZM99.9956 52.08C100.849 52.08 101.609 52.2533 102.276 52.6C102.956 52.9333 103.489 53.4533 103.876 54.16C104.262 54.8533 104.456 55.7467 104.456 56.84V63H101.336V57.32C101.336 56.4533 101.142 55.8133 100.756 55.4C100.382 54.9867 99.849 54.78 99.1556 54.78C98.6623 54.78 98.2156 54.8867 97.8156 55.1C97.429 55.3 97.1223 55.6133 96.8956 56.04C96.6823 56.4667 96.5756 57.0133 96.5756 57.68V63H93.4556V52.24H96.4356V55.22L95.8756 54.32C96.2623 53.6 96.8156 53.0467 97.5356 52.66C98.2556 52.2733 99.0756 52.08 99.9956 52.08ZM111.982 63.16C110.969 63.16 110.055 62.9333 109.242 62.48C108.429 62.0133 107.782 61.3667 107.302 60.54C106.835 59.7133 106.602 58.74 106.602 57.62C106.602 56.4867 106.835 55.5067 107.302 54.68C107.782 53.8533 108.429 53.2133 109.242 52.76C110.055 52.3067 110.969 52.08 111.982 52.08C112.889 52.08 113.682 52.28 114.362 52.68C115.042 53.08 115.569 53.6867 115.942 54.5C116.315 55.3133 116.502 56.3533 116.502 57.62C116.502 58.8733 116.322 59.9133 115.962 60.74C115.602 61.5533 115.082 62.16 114.402 62.56C113.735 62.96 112.929 63.16 111.982 63.16ZM112.522 60.6C113.029 60.6 113.489 60.48 113.902 60.24C114.315 60 114.642 59.66 114.882 59.22C115.135 58.7667 115.262 58.2333 115.262 57.62C115.262 56.9933 115.135 56.46 114.882 56.02C114.642 55.58 114.315 55.24 113.902 55C113.489 54.76 113.029 54.64 112.522 54.64C112.002 54.64 111.535 54.76 111.122 55C110.709 55.24 110.375 55.58 110.122 56.02C109.882 56.46 109.762 56.9933 109.762 57.62C109.762 58.2333 109.882 58.7667 110.122 59.22C110.375 59.66 110.709 60 111.122 60.24C111.535 60.48 112.002 60.6 112.522 60.6ZM115.342 63V60.8L115.402 57.6L115.202 54.42V48.16H118.322V63H115.342ZM126.55 63.16C125.323 63.16 124.243 62.92 123.31 62.44C122.39 61.96 121.676 61.3067 121.17 60.48C120.663 59.64 120.41 58.6867 120.41 57.62C120.41 56.54 120.656 55.5867 121.15 54.76C121.656 53.92 122.343 53.2667 123.21 52.8C124.076 52.32 125.056 52.08 126.15 52.08C127.203 52.08 128.15 52.3067 128.99 52.76C129.843 53.2 130.516 53.84 131.01 54.68C131.503 55.5067 131.75 56.5 131.75 57.66C131.75 57.78 131.743 57.92 131.73 58.08C131.716 58.2267 131.703 58.3667 131.69 58.5H122.95V56.68H130.05L128.85 57.22C128.85 56.66 128.736 56.1733 128.51 55.76C128.283 55.3467 127.97 55.0267 127.57 54.8C127.17 54.56 126.703 54.44 126.17 54.44C125.636 54.44 125.163 54.56 124.75 54.8C124.35 55.0267 124.036 55.3533 123.81 55.78C123.583 56.1933 123.47 56.6867 123.47 57.26V57.74C123.47 58.3267 123.596 58.8467 123.85 59.3C124.116 59.74 124.483 60.08 124.95 60.32C125.43 60.5467 125.99 60.66 126.63 60.66C127.203 60.66 127.703 60.5733 128.13 60.4C128.57 60.2267 128.97 59.9667 129.33 59.62L130.99 61.42C130.496 61.98 129.876 62.4133 129.13 62.72C128.383 63.0133 127.523 63.16 126.55 63.16ZM133.827 63V52.24H136.807V55.28L136.387 54.4C136.707 53.64 137.22 53.0667 137.927 52.68C138.633 52.28 139.493 52.08 140.507 52.08V54.96C140.373 54.9467 140.253 54.94 140.147 54.94C140.04 54.9267 139.927 54.92 139.807 54.92C138.953 54.92 138.26 55.1667 137.727 55.66C137.207 56.14 136.947 56.8933 136.947 57.92V63H133.827Z" fill="#21AE84"/>
<path d="M46 44C52.4 47.2 63.6667 45.3333 68.5 44L57 53.5L46 44Z" fill="#303030" stroke="#303030"/>
</svg>
